<?xml version="1.0" standalone="no"?>
<!DOCTYPE svg PUBLIC "-//W3C//DTD SVG 20010904//EN"
 "http://www.w3.org/TR/2001/REC-SVG-20010904/DTD/svg10.dtd">
<svg version="1.0" xmlns="http://www.w3.org/2000/svg"
 width="128.000000pt" height="128.000000pt" viewBox="0 0 128.000000 128.000000"
 preserveAspectRatio="xMidYMid meet">

<g transform="translate(0.000000,128.000000) scale(0.100000,-0.100000)"
fill="#000000" stroke="none">
<path d="M260 715 l0 -565 455 0 455 0 0 415 0 415 -150 0 -150 0 0 150 0 150
-305 0 -305 0 0 -565z m533 169 c65 -22 139 -91 168 -156 34 -77 32 -185 -3
-253 -57 -109 -154 -169 -273 -169 -116 0 -211 59 -264 166 -49 97 -42 205 18
300 32 50 86 91 148 114 52 18 150 17 206 -2z"/>
<path d="M600 810 c-56 -26 -86 -54 -110 -100 -44 -86 -33 -179 28 -250 86
-101 235 -108 327 -15 107 107 77 292 -59 362 -50 26 -134 27 -186 3z m128
-112 l3 -58 54 0 55 0 0 -35 0 -35 -55 0 -54 0 -3 -57 -3 -58 -37 -3 -38 -3 0
60 0 61 -55 0 -55 0 0 35 0 35 55 0 55 0 0 61 0 60 38 -3 37 -3 3 -57z"/>
<path d="M940 1150 l0 -100 102 0 103 0 -100 100 c-55 55 -101 100 -102 100
-2 0 -3 -45 -3 -100z"/>
<path d="M110 565 l0 -565 456 0 455 0 -3 37 -3 38 -412 3 -413 2 0 525 0 525
-40 0 -40 0 0 -565z"/>
</g>
</svg>
