<?xml version="1.0" standalone="no"?>
<!DOCTYPE svg PUBLIC "-//W3C//DTD SVG 20010904//EN"
 "http://www.w3.org/TR/2001/REC-SVG-20010904/DTD/svg10.dtd">
<svg version="1.0" xmlns="http://www.w3.org/2000/svg"
 width="512.000000pt" height="512.000000pt" viewBox="0 0 512.000000 512.000000"
 preserveAspectRatio="xMidYMid meet">

<g transform="translate(0.000000,512.000000) scale(0.100000,-0.100000)"
fill="#000000" stroke="none">
<path d="M2382 5106 c-422 -81 -731 -364 -843 -775 -16 -57 -22 -118 -26 -248
l-6 -173 -399 0 c-372 0 -401 -1 -436 -19 -75 -38 -58 104 -222 -1928 -145
-1795 -149 -1848 -132 -1882 9 -19 30 -44 45 -55 l28 -21 2169 0 2169 0 28 21
c15 11 36 36 45 55 17 33 13 93 -132 1883 -143 1768 -151 1851 -172 1882 -44
64 -46 64 -492 64 l-403 0 -6 163 c-6 181 -21 263 -72 392 -120 305 -383 539
-700 621 -124 32 -329 41 -443 20z m370 -285 c213 -55 392 -199 489 -396 60
-122 79 -212 79 -377 l0 -138 -771 0 -772 0 6 143 c4 93 12 168 26 218 69 264
286 480 551 548 104 27 289 28 392 2z"/>
</g>
</svg>
