<?xml version="1.0" standalone="no"?>
<!DOCTYPE svg PUBLIC "-//W3C//DTD SVG 20010904//EN"
 "http://www.w3.org/TR/2001/REC-SVG-20010904/DTD/svg10.dtd">
<svg version="1.0" xmlns="http://www.w3.org/2000/svg"
 width="128.000000pt" height="128.000000pt" viewBox="0 0 128.000000 128.000000"
 preserveAspectRatio="xMidYMid meet">

<g transform="translate(0.000000,128.000000) scale(0.100000,-0.100000)"
fill="#000000" stroke="none">
<path d="M585 1264 c-64 -33 -109 -95 -140 -191 l-17 -52 -131 -3 -132 -3 -33
-480 c-32 -470 -32 -480 -14 -505 l19 -25 505 -3 505 -2 17 38 c16 35 16 62
-3 496 -12 251 -21 464 -21 472 0 11 -25 14 -135 14 -100 0 -137 3 -139 13
-55 192 -172 288 -281 231z m110 -96 c26 -20 75 -108 75 -135 0 -10 -31 -13
-120 -13 -136 0 -135 -1 -99 75 23 50 70 95 98 95 10 0 31 -10 46 -22z m-252
-332 c21 -13 47 0 63 32 6 12 14 19 17 15 13 -12 7 -72 -9 -87 -56 -57 -151 6
-113 76 l13 23 6 -24 c3 -13 13 -29 23 -35z m383 -2 c28 -7 51 9 56 39 4 21 5
21 18 -5 28 -57 -29 -113 -90 -88 -34 14 -46 45 -35 88 l7 27 10 -28 c6 -16
20 -30 34 -33z"/>
</g>
</svg>
