<?xml version="1.0" standalone="no"?>
<!DOCTYPE svg PUBLIC "-//W3C//DTD SVG 20010904//EN"
 "http://www.w3.org/TR/2001/REC-SVG-20010904/DTD/svg10.dtd">
<svg version="1.0" xmlns="http://www.w3.org/2000/svg"
 width="128.000000pt" height="128.000000pt" viewBox="0 0 128.000000 128.000000"
 preserveAspectRatio="xMidYMid meet">

<g transform="translate(0.000000,128.000000) scale(0.100000,-0.100000)"
fill="#000000" stroke="none">
<path d="M460 1100 c0 -136 -4 -140 -140 -140 l-100 0 0 -420 c0 -407 1 -421
20 -440 19 -19 33 -20 400 -20 367 0 381 1 400 20 19 19 20 33 20 540 0 507
-1 521 -20 540 -19 19 -33 20 -300 20 l-280 0 0 -100z m220 0 c0 -13 -7 -20
-20 -20 -13 0 -20 7 -20 20 0 13 7 20 20 20 13 0 20 -7 20 -20z m280 0 c0 -19
-7 -20 -120 -20 -113 0 -120 1 -120 20 0 19 7 20 120 20 113 0 120 -1 120 -20z
m0 -80 c0 -19 -7 -20 -160 -20 -153 0 -160 1 -160 20 0 19 7 20 160 20 153 0
160 -1 160 -20z m-13 -152 c74 -73 76 -69 -182 -328 l-225 -225 -101 -39 c-68
-26 -104 -35 -111 -28 -7 7 3 43 29 111 l38 101 225 225 c258 257 254 255 327
183z"/>
<path d="M842 847 l-22 -23 43 -42 43 -42 22 23 c29 31 28 37 -11 75 -39 38
-47 39 -75 9z"/>
<path d="M774 779 c-6 -11 62 -89 78 -89 24 0 18 34 -13 66 -34 35 -53 42 -65
23z"/>
<path d="M587 592 c-132 -132 -146 -150 -132 -162 14 -12 34 4 163 133 130
131 145 148 132 162 -14 13 -32 -2 -163 -133z"/>
<path d="M641 536 c-127 -128 -143 -147 -131 -161 12 -14 30 0 161 131 114
114 146 151 137 161 -6 7 -13 13 -17 13 -3 0 -71 -65 -150 -144z"/>
<path d="M410 377 c0 -29 18 -47 47 -47 30 0 29 10 -5 43 -34 33 -42 34 -42 4z"/>
<path d="M380 310 c0 -5 5 -10 10 -10 6 0 10 5 10 10 0 6 -4 10 -10 10 -5 0
-10 -4 -10 -10z"/>
<path d="M330 1085 l-85 -85 83 0 c60 0 84 4 88 13 3 8 4 46 2 86 l-3 72 -85
-86z"/>
</g>
</svg>
