<?xml version="1.0" standalone="no"?>
<!DOCTYPE svg PUBLIC "-//W3C//DTD SVG 20010904//EN"
 "http://www.w3.org/TR/2001/REC-SVG-20010904/DTD/svg10.dtd">
<svg version="1.0" xmlns="http://www.w3.org/2000/svg"
 width="128.000000pt" height="128.000000pt" viewBox="0 0 128.000000 128.000000"
 preserveAspectRatio="xMidYMid meet">

<g transform="translate(0.000000,128.000000) scale(0.100000,-0.100000)"
fill="#000000" stroke="none">
<path d="M17 1262 c-15 -17 -17 -71 -17 -570 0 -474 2 -553 15 -565 16 -17 12
-16 348 -83 229 -45 238 -46 257 -29 13 12 20 31 20 57 l0 38 144 0 c118 0
147 3 160 16 13 13 16 45 16 194 0 193 -4 210 -55 210 -46 0 -55 -31 -55 -182
l0 -138 -105 0 -105 0 0 438 c0 406 -1 440 -17 454 -10 9 -56 27 -103 41 l-85
26 207 0 207 1 3 -145 c3 -154 7 -167 54 -167 49 0 54 19 54 212 0 159 -2 179
-18 193 -17 15 -64 17 -464 17 -418 0 -446 -1 -461 -18z"/>
<path d="M1035 885 c-14 -13 -25 -29 -25 -35 0 -6 19 -31 41 -55 l42 -45 -150
0 c-162 0 -193 -9 -193 -55 0 -50 18 -55 188 -55 l156 0 -31 -32 c-61 -65 -63
-110 -7 -124 23 -6 38 5 125 92 58 58 99 107 99 118 0 22 -188 216 -209 216
-6 0 -23 -11 -36 -25z"/>
</g>
</svg>
