<?xml version="1.0" standalone="no"?>
<!DOCTYPE svg PUBLIC "-//W3C//DTD SVG 20010904//EN"
 "http://www.w3.org/TR/2001/REC-SVG-20010904/DTD/svg10.dtd">
<svg version="1.0" xmlns="http://www.w3.org/2000/svg"
 width="128.000000pt" height="128.000000pt" viewBox="0 0 128.000000 128.000000"
 preserveAspectRatio="xMidYMid meet">

<g transform="translate(0.000000,128.000000) scale(0.100000,-0.100000)"
fill="#000000" stroke="none">
<path d="M70 945 l0 -35 75 0 75 0 0 35 0 35 -75 0 -75 0 0 -35z"/>
<path d="M290 695 l0 -285 24 0 c17 0 30 11 45 36 26 44 98 79 145 70 47 -9
92 -40 107 -75 l14 -31 117 0 118 0 0 285 0 285 -285 0 -285 0 0 -285z"/>
<path d="M0 795 l0 -35 110 0 110 0 0 35 0 35 -110 0 -110 0 0 -35z"/>
<path d="M940 580 c0 -183 6 -200 45 -138 33 51 70 73 125 73 55 0 92 -22 125
-73 34 -53 45 -41 45 46 l0 77 -86 93 -86 92 -84 0 -84 0 0 -170z"/>
<path d="M70 645 l0 -35 75 0 75 0 0 35 0 35 -75 0 -75 0 0 -35z"/>
<path d="M431 414 c-27 -35 -26 -59 4 -89 63 -63 160 18 105 88 -29 37 -80 37
-109 1z"/>
<path d="M1060 420 c-43 -43 -11 -120 48 -120 36 0 72 37 72 73 0 36 -33 67
-70 67 -17 0 -39 -9 -50 -20z"/>
</g>
</svg>
