<?xml version="1.0" standalone="no"?>
<!DOCTYPE svg PUBLIC "-//W3C//DTD SVG 20010904//EN"
 "http://www.w3.org/TR/2001/REC-SVG-20010904/DTD/svg10.dtd">
<svg version="1.0" xmlns="http://www.w3.org/2000/svg"
 width="320.000000pt" height="320.000000pt" viewBox="0 0 320.000000 320.000000"
 preserveAspectRatio="xMidYMid meet">

<g transform="translate(0.000000,320.000000) scale(0.100000,-0.100000)"
fill="#000000" stroke="none">
<path d="M932 2003 c-6 -3 -9 -10 -6 -15 5 -7 2 -8 -5 -4 -13 9 -54 -22 -46
-34 3 -5 -5 -6 -17 -2 -14 3 -19 1 -14 -6 5 -8 2 -10 -8 -6 -9 3 -16 1 -16 -5
0 -6 -5 -11 -10 -11 -6 0 -41 -20 -79 -45 -38 -25 -71 -45 -75 -45 -4 0 -16 9
-28 20 -25 23 -43 26 -35 6 4 -10 1 -13 -9 -9 -11 4 -12 9 -3 19 9 10 4 21
-22 46 -42 42 -99 88 -110 88 -5 0 -9 -19 -9 -41 0 -38 -2 -41 -22 -34 -13 4
-31 7 -40 8 -9 1 -15 4 -13 8 2 3 -13 16 -34 27 -31 18 -44 20 -66 12 -14 -5
-25 -16 -24 -22 1 -7 -1 -20 -4 -28 -10 -23 -57 -309 -57 -346 0 -18 -4 -35
-9 -38 -4 -3 -11 -29 -15 -57 -4 -29 -9 -66 -12 -83 -4 -24 -3 -28 5 -16 8 11
9 7 5 -20 -8 -44 -14 -50 -15 -19 -1 21 -2 21 -9 -6 -11 -45 -11 -77 0 -70 7
4 7 -3 0 -19 -13 -34 3 -33 30 2 12 15 19 20 15 12 -4 -8 3 -4 15 9 11 13 19
30 16 37 -3 8 0 11 9 8 15 -6 51 52 46 74 -1 8 7 16 19 19 13 3 19 11 16 19
-3 8 6 21 20 31 14 9 29 25 33 36 7 18 9 17 40 -8 17 -15 29 -30 26 -33 -7 -8
25 -42 40 -42 7 0 19 -8 26 -17 13 -17 13 -17 -6 -3 -19 14 -19 14 -6 -3 8
-10 20 -16 28 -13 8 4 11 1 7 -5 -8 -14 47 -71 63 -65 7 3 13 1 13 -5 0 -7 12
-8 30 -4 19 4 30 3 30 -4 0 -19 28 -12 35 9 3 11 10 20 14 20 13 0 44 78 36
91 -5 7 -4 10 3 5 5 -3 12 -1 14 6 3 8 11 9 24 3 20 -9 30 -12 52 -14 7 0 11
-5 8 -10 -7 -11 70 -65 83 -57 5 4 13 1 17 -5 5 -8 3 -9 -7 -4 -11 6 -11 5 -3
-4 6 -7 20 -14 30 -15 14 -2 18 -10 16 -27 -4 -38 13 -57 37 -42 15 10 21 10
25 0 4 -7 4 -2 2 10 -2 14 1 20 8 17 7 -3 24 22 42 60 16 35 33 62 38 58 5 -3
7 2 3 11 -3 8 1 21 9 28 8 6 21 26 30 44 15 32 17 33 51 23 26 -7 38 -6 43 2
5 9 9 9 14 1 4 -6 2 -11 -4 -11 -20 0 0 -18 54 -49 60 -35 75 -39 55 -14 -13
15 -12 15 9 2 12 -8 18 -15 12 -17 -5 -2 -10 -8 -10 -14 0 -6 7 -7 16 -4 8 3
13 2 10 -3 -11 -18 28 -22 41 -5 15 21 17 44 3 44 -5 0 -10 9 -10 20 0 11 -4
20 -8 20 -5 0 -21 26 -37 58 -15 31 -31 59 -34 62 -3 3 -14 21 -24 40 -9 19
-28 54 -41 77 -13 23 -21 44 -18 47 2 3 -3 8 -12 12 -9 3 -16 13 -16 21 0 18
-79 165 -93 174 -25 17 -125 30 -159 21 -26 -7 -37 -6 -44 3 -5 7 -15 11 -22
8z m65 -75 c-3 -8 -6 -5 -6 6 -1 11 2 17 5 13 3 -3 4 -12 1 -19z m120 16 c-3
-3 -12 -4 -19 -1 -8 3 -5 6 6 6 11 1 17 -2 13 -5z m-172 -14 c3 -6 -1 -7 -9
-4 -18 7 -21 14 -7 14 6 0 13 -4 16 -10z m138 -6 c45 -15 48 -20 118 -142 39
-70 94 -166 122 -215 27 -48 48 -89 46 -92 -3 -2 -51 26 -107 62 -59 37 -107
62 -112 57 -4 -5 -36 -64 -70 -131 -34 -68 -63 -123 -64 -123 -2 0 -1 116 1
258 3 228 9 342 17 342 1 0 23 -7 49 -16z m-821 -19 c-8 -16 -9 -16 -15 -1 -4
10 -3 15 3 11 6 -3 10 -1 10 6 0 7 3 10 6 6 3 -3 2 -13 -4 -22z m269 3 c11
-21 11 -22 -4 -9 -10 7 -17 17 -17 22 0 15 9 10 21 -13z m-154 -52 c7 -6 48
-116 93 -245 89 -261 92 -251 -38 -128 -59 57 -75 67 -87 57 -8 -6 -49 -58
-92 -115 -43 -57 -79 -102 -81 -101 -3 3 103 528 114 569 5 16 8 16 42 -4 20
-12 42 -27 49 -33z m434 -70 c-33 -57 -61 -107 -61 -111 0 -5 84 -138 179
-285 19 -29 22 -30 -101 52 -48 32 -89 58 -91 58 -3 0 -19 -30 -37 -67 -18
-38 -34 -63 -36 -58 -21 57 -153 499 -150 502 2 2 33 -23 69 -56 35 -34 69
-61 74 -61 5 0 54 31 109 69 54 37 101 67 103 65 2 -2 -24 -50 -58 -108z
m-324 72 c-3 -8 -6 -5 -6 6 -1 11 2 17 5 13 3 -3 4 -12 1 -19z m397 -3 c-9
-14 -18 -25 -21 -25 -5 0 5 18 20 38 17 22 18 13 1 -13z m-205 -52 c14 11 14
10 2 -5 -14 -18 -41 -11 -57 14 -4 6 3 4 16 -5 19 -13 27 -14 39 -4z m549 -18
c-3 -3 -9 2 -12 12 -6 14 -5 15 5 6 7 -7 10 -15 7 -18z m-231 -152 c-2 -32 -3
-8 -3 52 0 61 1 87 3 58 2 -29 2 -78 0 -110z m253 127 c0 -5 -2 -10 -4 -10 -3
0 -8 5 -11 10 -3 6 -1 10 4 10 6 0 11 -4 11 -10z m-723 -32 c-3 -8 -6 -5 -6 6
-1 11 2 17 5 13 3 -3 4 -12 1 -19z m277 -13 c-9 -14 -18 -25 -21 -25 -5 0 5
18 20 38 17 22 18 13 1 -13z m-14 -55 c6 -11 8 -20 6 -20 -3 0 -10 9 -16 20
-6 11 -8 20 -6 20 3 0 10 -9 16 -20z m530 -34 c0 -12 -5 -7 -19 24 -11 24 -11
24 3 6 9 -11 16 -24 16 -30z m-833 12 c-3 -8 -6 -5 -6 6 -1 11 2 17 5 13 3 -3
4 -12 1 -19z m347 -45 c9 -18 14 -33 12 -33 -6 0 -36 55 -36 66 0 11 5 3 24
-33z m526 -33 c6 -11 8 -20 6 -20 -3 0 -10 9 -16 20 -6 11 -8 20 -6 20 3 0 10
-9 16 -20z m-156 -21 c-3 -5 -10 -7 -15 -3 -5 3 -7 10 -3 15 3 5 10 7 15 3 5
-3 7 -10 3 -15z m-1017 -21 c-3 -8 -6 -5 -6 6 -1 11 2 17 5 13 3 -3 4 -12 1
-19z m956 7 c-3 -9 -8 -14 -10 -11 -3 3 -2 9 2 15 9 16 15 13 8 -4z m-594 -55
c0 -10 -3 -8 -9 5 -12 27 -12 43 0 25 5 -8 9 -22 9 -30z m849 15 c-3 -3 -9 2
-12 12 -6 14 -5 15 5 6 7 -7 10 -15 7 -18z m-487 -12 c13 -16 12 -17 -3 -4
-10 7 -18 15 -18 17 0 8 8 3 21 -13z m404 -1 c-3 -3 -11 0 -18 7 -9 10 -8 11
6 5 10 -3 15 -9 12 -12z m-525 -34 c0 -6 -6 -5 -15 2 -8 7 -15 14 -15 16 0 2
7 1 15 -2 8 -4 15 -11 15 -16z m655 -16 c-3 -3 -11 0 -18 7 -9 10 -8 11 6 5
10 -3 15 -9 12 -12z m-865 -37 c0 -5 -5 -3 -10 5 -5 8 -10 20 -10 25 0 6 5 3
10 -5 5 -8 10 -19 10 -25z m503 20 c-3 -9 -8 -14 -10 -11 -3 3 -2 9 2 15 9 16
15 13 8 -4z m-823 -19 c0 -2 -8 -10 -17 -17 -16 -13 -17 -12 -4 4 13 16 21 21
21 13z m730 -40 c0 -12 -5 -7 -19 24 -11 24 -11 24 3 6 9 -11 16 -24 16 -30z
m-853 -48 c-3 -8 -6 -5 -6 6 -1 11 2 17 5 13 3 -3 4 -12 1 -19z m845 -20 c-8
-8 -9 -4 -5 13 4 13 8 18 11 10 2 -7 -1 -18 -6 -23z"/>
<path d="M1066 1738 c-4 -46 -9 -104 -12 -130 -3 -27 -2 -48 3 -48 4 0 21 21
37 48 16 26 31 48 32 50 1 2 27 -4 58 -13 31 -9 61 -15 66 -13 10 3 -157 188
-170 188 -4 0 -11 -37 -14 -82z m37 17 c-7 -21 -12 -19 -10 4 0 11 5 18 9 15
4 -3 5 -11 1 -19z m38 -22 c13 -16 12 -17 -3 -4 -10 7 -18 15 -18 17 0 8 8 3
21 -13z m-54 -45 c-3 -8 -6 -5 -6 6 -1 11 2 17 5 13 3 -3 4 -12 1 -19z m79 7
c-3 -10 1 -15 11 -15 9 0 14 -3 10 -6 -3 -3 -15 -3 -26 1 -17 5 -18 9 -8 20
16 19 20 19 13 0z m-68 -44 c-7 -9 -14 -18 -15 -20 -2 -2 -3 5 -3 16 0 11 7
20 15 20 12 0 12 -3 3 -16z"/>
<path d="M300 1738 c-6 -24 -20 -76 -31 -116 -10 -40 -19 -78 -19 -84 0 -7 20
8 45 32 l45 44 56 -27 c31 -16 58 -26 61 -24 6 6 -128 217 -138 217 -4 0 -13
-19 -19 -42z m61 -53 l10 -20 -16 20 c-9 11 -21 29 -26 40 l-10 20 16 -20 c9
-11 21 -29 26 -40z m-42 -13 c-5 -2 -11 -19 -15 -38 -3 -19 -10 -36 -14 -39
-4 -3 -1 22 8 55 11 42 18 55 23 43 3 -10 3 -19 -2 -21z"/>
<path d="M2039 1993 c-6 -7 -16 -10 -22 -6 -6 4 -8 0 -4 -9 4 -12 1 -14 -13
-11 -10 3 -21 -1 -25 -8 -5 -7 -4 -10 3 -5 6 3 13 2 16 -2 3 -5 -5 -9 -17 -8
-26 1 -97 -38 -97 -54 0 -6 -4 -8 -10 -5 -5 3 -10 1 -10 -4 0 -6 -7 -11 -15
-11 -7 0 -19 -8 -24 -17 -6 -10 -11 -14 -11 -9 0 4 -12 0 -27 -9 -16 -10 -25
-14 -21 -10 10 11 -29 38 -42 30 -6 -4 -10 -3 -9 2 3 20 -4 33 -46 78 -52 58
-95 71 -95 30 0 -14 5 -25 11 -25 5 0 8 -4 4 -10 -8 -13 5 -61 15 -55 10 6 25
-34 16 -42 -3 -4 -6 2 -6 12 0 10 -2 16 -5 13 -4 -3 -3 -18 1 -33 5 -20 9 -24
16 -13 7 10 8 8 6 -7 -4 -36 12 -96 24 -89 7 4 8 2 4 -5 -4 -6 -4 -25 -1 -43
6 -23 9 -27 17 -17 7 10 8 5 3 -14 -4 -20 -2 -27 6 -22 8 5 9 1 4 -15 -5 -17
-4 -21 6 -15 9 6 11 2 7 -13 -4 -13 -2 -20 4 -16 5 3 8 -2 7 -12 -2 -11 3 -29
9 -42 7 -12 10 -27 6 -33 -4 -6 -1 -15 6 -19 6 -4 13 -19 13 -34 1 -14 6 -26
11 -26 4 0 6 -7 3 -15 -4 -8 -2 -17 3 -20 5 -3 6 -13 3 -23 -3 -9 -3 -14 2
-10 4 4 14 3 20 -2 19 -15 49 25 49 65 0 19 3 35 8 35 4 0 5 6 2 14 -4 10 3
13 26 10 22 -3 29 0 24 9 -4 6 4 2 18 -11 13 -12 27 -20 30 -16 4 3 12 -4 18
-16 7 -12 18 -19 25 -16 8 3 17 0 21 -6 5 -7 2 -8 -6 -3 -8 5 -11 4 -6 -3 4
-6 13 -9 21 -5 8 3 15 1 15 -4 0 -5 16 -17 36 -26 19 -10 32 -22 29 -27 -3 -6
-2 -10 4 -10 6 0 8 -7 5 -14 -7 -17 26 -16 66 1 14 6 40 17 58 25 17 7 32 16
32 20 0 5 3 7 8 6 4 -1 18 2 31 6 18 6 21 10 10 17 -9 6 -4 7 15 3 23 -5 27
-4 21 6 -6 10 -4 12 8 7 9 -3 19 -2 22 4 4 5 11 7 16 4 5 -4 9 0 9 7 0 17 55
39 78 31 13 -4 14 -3 3 5 -10 7 -4 11 25 16 47 8 81 26 50 26 -11 0 -17 2 -14
5 3 4 17 3 31 0 27 -7 39 -27 87 -142 13 -29 26 -53 30 -53 4 0 11 -11 14 -25
4 -14 11 -25 17 -25 6 0 7 -6 4 -13 -4 -6 0 -4 8 6 8 10 25 61 37 115 12 53
28 123 36 155 8 32 14 65 14 73 0 20 33 50 64 58 17 4 24 11 20 18 -5 8 -2 9
10 5 10 -4 15 -3 11 3 -3 6 5 10 18 10 35 0 40 25 13 57 l-24 28 24 35 c13 19
24 31 24 26 0 -5 10 4 22 20 12 16 26 32 32 35 16 12 -2 39 -21 33 -15 -5 -15
-4 -3 5 10 7 19 6 31 -5 15 -13 17 -13 22 0 13 34 -16 37 -280 33 -142 -3
-275 -8 -296 -12 -24 -5 -85 1 -174 15 -114 19 -140 27 -158 46 -17 19 -32 24
-64 22 -23 -1 -46 -7 -52 -15z m59 -7 c-7 -8 -15 -12 -17 -11 -5 6 10 25 20
25 5 0 4 -6 -3 -14z m-468 -20 c0 -2 -7 -7 -16 -10 -8 -3 -12 -2 -9 4 6 10 25
14 25 6z m437 -41 c0 -34 -6 -41 -11 -13 -1 7 -6 19 -10 27 -6 10 -5 12 2 7 7
-4 12 -2 12 3 0 6 2 11 3 11 2 0 4 -16 4 -35z m70 12 c17 -20 38 -26 161 -41
78 -10 142 -20 142 -22 0 -1 -52 -15 -115 -30 -63 -15 -115 -30 -115 -35 0 -4
43 -31 95 -59 52 -28 95 -55 95 -59 0 -4 -37 -13 -82 -21 l-83 -15 -8 -68 c-5
-38 -6 -74 -4 -81 3 -8 46 -18 111 -26 58 -7 106 -16 106 -19 0 -8 -302 -132
-308 -126 -8 8 -44 577 -38 601 8 30 17 30 43 1z m73 3 l25 -8 -25 -1 c-14 0
-32 4 -40 9 -13 9 -13 10 0 9 8 -1 26 -5 40 -9z m-245 -9 c3 -5 2 -12 -3 -15
-5 -3 -9 1 -9 9 0 17 3 19 12 6z m-270 -55 c6 -4 1 -4 -10 2 -11 6 -29 21 -40
34 -19 22 -19 22 10 -2 17 -14 35 -29 40 -34z m890 34 c3 -5 1 -10 -4 -10 -6
0 -11 5 -11 10 0 6 2 10 4 10 3 0 8 -4 11 -10z m-611 -31 c-8 -17 -36 -65 -60
-106 -24 -41 -44 -79 -44 -85 0 -6 28 -54 62 -107 34 -53 77 -120 96 -150 19
-29 28 -50 21 -45 -8 4 -53 34 -101 66 -47 32 -89 58 -93 58 -3 0 -20 -30 -37
-67 l-31 -68 -28 85 c-53 166 -130 423 -126 426 2 2 32 -23 68 -56 35 -32 68
-59 72 -60 5 0 54 31 110 70 56 38 103 70 105 70 1 0 -5 -14 -14 -31z m521 13
c-3 -3 -11 0 -18 7 -9 10 -8 11 6 5 10 -3 15 -9 12 -12z m162 12 c-3 -3 -12
-4 -19 -1 -8 3 -5 6 6 6 11 1 17 -2 13 -5z m60 0 c-3 -3 -12 -4 -19 -1 -8 3
-5 6 6 6 11 1 17 -2 13 -5z m210 0 c-3 -3 -12 -4 -19 -1 -8 3 -5 6 6 6 11 1
17 -2 13 -5z m60 0 c-3 -3 -12 -4 -19 -1 -8 3 -5 6 6 6 11 1 17 -2 13 -5z
m-52 -72 c-42 -41 -60 -50 -113 -62 -34 -7 -65 -16 -67 -20 -3 -4 29 -20 71
-35 41 -15 72 -31 67 -34 -4 -4 -28 -16 -53 -26 -25 -10 -48 -22 -53 -25 -4
-4 -21 -76 -38 -160 -16 -85 -31 -156 -33 -157 -1 -2 -26 75 -55 171 l-53 173
-36 10 -37 9 52 33 c58 37 58 32 6 113 -12 21 -23 42 -23 48 0 6 73 10 208 10
l207 0 -50 -48z m-868 6 c-3 -7 -5 -2 -5 12 0 14 2 19 5 13 2 -7 2 -19 0 -25z
m943 28 c0 -2 -8 -10 -17 -17 -16 -13 -17 -12 -4 4 13 16 21 21 21 13z m-1022
-26 c-7 -10 -14 -17 -17 -15 -4 4 18 35 25 35 2 0 -1 -9 -8 -20z m345 -27 c-7
-2 -19 -2 -25 0 -7 3 -2 5 12 5 14 0 19 -2 13 -5z m-533 -8 c0 -7 -30 -13 -34
-7 -3 4 4 9 15 9 10 1 19 0 19 -2z m798 -31 c9 -18 8 -25 -6 -35 -15 -12 -15
-12 -5 1 8 10 9 21 3 30 -6 8 -10 19 -10 24 0 12 4 7 18 -20z m-521 -71 c-2
-16 -4 -5 -4 22 0 28 2 40 4 28 2 -13 2 -35 0 -50z m773 37 c18 -12 2 -12 -25
0 -13 6 -15 9 -5 9 8 0 22 -4 30 -9z m-937 -25 c-3 -9 -8 -14 -10 -11 -3 3 -2
9 2 15 9 16 15 13 8 -4z m1012 -5 c3 -6 -1 -7 -9 -4 -18 7 -21 14 -7 14 6 0
13 -4 16 -10z m-470 -18 c-3 -3 -11 0 -18 7 -9 10 -8 11 6 5 10 -3 15 -9 12
-12z m-62 -39 c-7 -2 -19 -2 -25 0 -7 3 -2 5 12 5 14 0 19 -2 13 -5z m-53 -7
c0 -2 -11 -6 -25 -8 -13 -3 -22 -1 -19 3 5 9 44 13 44 5z m217 -2 c-3 -3 -12
-4 -19 -1 -8 3 -5 6 6 6 11 1 17 -2 13 -5z m-609 -35 c-3 -8 -7 -3 -11 10 -4
17 -3 21 5 13 5 -5 8 -16 6 -23z m329 25 c-3 -3 -12 -4 -19 -1 -8 3 -5 6 6 6
11 1 17 -2 13 -5z m-190 -76 c-2 -13 -4 -3 -4 22 0 25 2 35 4 23 2 -13 2 -33
0 -45z m170 15 c-3 -10 -5 -2 -5 17 0 19 2 27 5 18 2 -10 2 -26 0 -35z m530
-65 c-3 -8 -6 -5 -6 6 -1 11 2 17 5 13 3 -3 4 -12 1 -19z m-504 5 c-7 -2 -19
-2 -25 0 -7 3 -2 5 12 5 14 0 19 -2 13 -5z m350 -13 c3 -11 1 -18 -4 -14 -5 3
-9 12 -9 20 0 20 7 17 13 -6z m-280 3 c-7 -2 -19 -2 -25 0 -7 3 -2 5 12 5 14
0 19 -2 13 -5z m64 -9 c-3 -3 -12 -4 -19 -1 -8 3 -5 6 6 6 11 1 17 -2 13 -5z
m76 -11 c-7 -2 -21 -2 -30 0 -10 3 -4 5 12 5 17 0 24 -2 18 -5z m-396 -90 c-2
-16 -4 -3 -4 27 0 30 2 43 4 28 2 -16 2 -40 0 -55z m-28 23 c-3 -3 -11 5 -18
17 -13 21 -12 21 5 5 10 -10 16 -20 13 -22z m681 -96 l-11 -25 6 25 c2 14 5
34 6 45 2 19 2 19 6 0 2 -12 -1 -32 -7 -45z m-590 -10 c-8 -5 -19 -10 -25 -10
-5 0 -3 5 5 10 8 5 20 10 25 10 6 0 3 -5 -5 -10z"/>
<path d="M305 1450 c-3 -6 1 -7 9 -4 18 7 21 14 7 14 -6 0 -13 -4 -16 -10z"/>
</g>
</svg>
