<?xml version="1.0" standalone="no"?>
<!DOCTYPE svg PUBLIC "-//W3C//DTD SVG 20010904//EN"
 "http://www.w3.org/TR/2001/REC-SVG-20010904/DTD/svg10.dtd">
<svg version="1.0" xmlns="http://www.w3.org/2000/svg"
 width="128.000000pt" height="128.000000pt" viewBox="0 0 128.000000 128.000000"
 preserveAspectRatio="xMidYMid meet">

<g transform="translate(0.000000,128.000000) scale(0.100000,-0.100000)"
fill="#000000" stroke="none">
<path d="M66 1261 c-16 -11 -38 -33 -49 -51 -41 -64 2 -158 82 -180 48 -13
1034 -13 1082 0 79 22 122 114 83 180 -11 17 -33 40 -50 51 -30 18 -55 19
-575 19 -518 0 -545 -1 -573 -19z"/>
<path d="M71 752 c-38 -20 -71 -73 -71 -112 0 -39 33 -92 71 -112 31 -17 70
-18 569 -18 499 0 538 1 569 18 38 20 71 73 71 112 0 39 -33 92 -71 112 -31
17 -70 18 -569 18 -499 0 -538 -1 -569 -18z"/>
<path d="M95 249 c-77 -22 -117 -116 -77 -181 44 -71 19 -68 622 -68 519 0
544 1 574 19 17 11 39 34 50 51 39 66 -4 158 -83 180 -45 12 -1044 12 -1086
-1z"/>
</g>
</svg>
