<?xml version="1.0" standalone="no"?>
<!DOCTYPE svg PUBLIC "-//W3C//DTD SVG 20010904//EN"
 "http://www.w3.org/TR/2001/REC-SVG-20010904/DTD/svg10.dtd">
<svg version="1.0" xmlns="http://www.w3.org/2000/svg"
 width="64.000000pt" height="64.000000pt" viewBox="0 0 64.000000 64.000000"
 preserveAspectRatio="xMidYMid meet">

<g transform="translate(0.000000,64.000000) scale(0.100000,-0.100000)"
fill="#000000" stroke="none">
<path d="M243 621 c-74 -34 -118 -131 -93 -206 26 -78 92 -127 170 -127 78 0
144 49 170 127 34 104 -57 225 -170 225 -19 0 -54 -9 -77 -19z m143 -69 c53
-42 59 -114 15 -164 -26 -29 -35 -33 -81 -33 -46 0 -55 4 -81 33 -66 74 -18
182 81 182 28 0 53 -7 66 -18z"/>
<path d="M204 236 c-60 -28 -117 -91 -138 -154 -25 -71 -22 -82 19 -82 31 0
35 3 35 25 0 38 35 100 73 129 18 14 54 31 80 37 87 24 186 -21 227 -101 11
-22 20 -51 20 -65 0 -22 4 -25 35 -25 41 0 44 11 19 82 -50 147 -227 221 -370
154z"/>
</g>
</svg>
