<?xml version="1.0" standalone="no"?>
<!DOCTYPE svg PUBLIC "-//W3C//DTD SVG 20010904//EN"
 "http://www.w3.org/TR/2001/REC-SVG-20010904/DTD/svg10.dtd">
<svg version="1.0" xmlns="http://www.w3.org/2000/svg"
 width="128.000000pt" height="128.000000pt" viewBox="0 0 128.000000 128.000000"
 preserveAspectRatio="xMidYMid meet">

<g transform="translate(0.000000,128.000000) scale(0.100000,-0.100000)"
fill="#000000" stroke="none">
<path d="M158 1052 c-132 -131 -158 -163 -158 -187 0 -23 18 -47 93 -122 77
-76 99 -93 124 -93 17 0 37 8 48 20 10 11 22 20 27 20 4 0 8 -129 8 -288 0
-244 2 -291 16 -310 15 -22 16 -22 324 -22 308 0 309 0 324 22 14 19 16 67 16
317 l0 295 28 -27 c50 -48 74 -39 179 66 75 75 93 99 93 122 0 24 -26 56 -158
187 l-158 158 -77 0 c-72 0 -78 -2 -103 -29 -14 -16 -44 -37 -65 -45 -78 -31
-172 -12 -223 45 -25 27 -31 29 -103 29 l-77 0 -158 -158z"/>
</g>
</svg>
