<?xml version="1.0" standalone="no"?>
<!DOCTYPE svg PUBLIC "-//W3C//DTD SVG 20010904//EN"
 "http://www.w3.org/TR/2001/REC-SVG-20010904/DTD/svg10.dtd">
<svg version="1.0" xmlns="http://www.w3.org/2000/svg"
 width="128.000000pt" height="128.000000pt" viewBox="0 0 128.000000 128.000000"
 preserveAspectRatio="xMidYMid meet">

<g transform="translate(0.000000,128.000000) scale(0.100000,-0.100000)"
fill="#000000" stroke="none">
<path d="M550 1266 c-139 -39 -243 -173 -243 -315 0 -83 14 -134 55 -195 61
-94 162 -146 278 -146 116 0 217 52 278 146 171 257 -71 592 -368 510z"/>
<path d="M495 524 c-190 -30 -352 -177 -399 -365 -19 -77 -21 -130 -4 -147 17
-17 1079 -17 1096 0 28 28 0 177 -51 267 -38 66 -118 149 -179 183 -90 50
-134 60 -288 63 -80 2 -158 1 -175 -1z"/>
</g>
</svg>
